<?xml version="1.0" standalone="no"?>
<!DOCTYPE svg PUBLIC "-//W3C//DTD SVG 20010904//EN"
 "http://www.w3.org/TR/2001/REC-SVG-20010904/DTD/svg10.dtd">
<svg version="1.0" xmlns="http://www.w3.org/2000/svg"
 width="800.000000pt" height="600.000000pt" viewBox="0 0 800.000000 600.000000"
 preserveAspectRatio="xMidYMid meet">

<g transform="translate(0.000000,600.000000) scale(0.100000,-0.100000)"
fill="#000000" stroke="none">
<path d="M4090 4799 c-616 -43 -1135 -500 -1265 -1114 -15 -71 -24 -97 -24
-73 -1 20 10 92 23 160 35 180 38 216 27 288 -12 73 -65 190 -86 190 -12 0
-12 -6 0 -41 21 -57 19 -98 -10 -246 -32 -161 -42 -305 -25 -359 6 -21 24 -57
38 -79 24 -36 26 -50 29 -155 1 -63 8 -150 16 -193 8 -43 10 -74 5 -69 -6 6
-23 88 -39 183 -34 202 -68 289 -143 364 -67 66 -89 59 -40 -14 20 -31 31 -75
54 -207 46 -268 68 -325 153 -399 39 -33 58 -58 67 -88 14 -47 96 -223 130
-277 l22 -35 -30 33 c-16 18 -53 77 -83 130 -65 120 -128 211 -170 246 -33 28
-106 68 -146 80 -32 10 -31 -17 1 -32 31 -14 64 -58 121 -162 138 -252 207
-329 320 -359 30 -8 50 -23 77 -59 38 -50 134 -144 203 -200 22 -18 36 -32 32
-32 -15 0 -84 50 -150 109 -163 147 -248 192 -369 199 -53 3 -78 1 -78 -7 0
-6 12 -13 28 -16 56 -12 109 -45 192 -117 211 -184 275 -221 393 -224 67 -2
83 -6 125 -32 51 -33 174 -92 234 -111 21 -7 40 -16 43 -21 8 -13 -57 7 -195
60 -195 75 -308 84 -424 36 -54 -23 -43 -32 32 -28 59 4 79 0 162 -33 271
-105 391 -127 487 -86 49 22 53 22 130 7 44 -8 128 -16 186 -17 59 -1 104 -5
101 -10 -3 -5 -87 -9 -187 -9 -199 0 -263 -10 -348 -57 -50 -26 -107 -79 -97
-88 3 -3 25 4 49 17 41 21 60 23 279 29 278 8 311 15 393 93 24 23 48 36 65
36 15 0 72 11 127 24 261 64 472 183 665 376 157 157 274 343 340 539 79 235
94 478 45 739 -16 83 -49 188 -66 207 -14 14 -11 -18 6 -66 30 -84 54 -205 64
-316 28 -306 -54 -617 -231 -886 -72 -108 -239 -279 -348 -356 -150 -106 -395
-211 -489 -211 -61 1 -131 31 -274 117 -65 40 -143 81 -175 93 -69 26 -171 36
-230 22 l-43 -10 -69 68 c-78 77 -147 115 -238 132 -34 6 -62 16 -62 23 0 26
-71 154 -109 197 -23 26 -66 61 -96 78 l-55 31 0 57 c0 114 -37 215 -108 301
l-29 34 24 74 c30 95 31 190 2 278 l-22 66 20 22 c75 83 123 199 123 297 0 65
-14 80 -25 28 -13 -57 -42 -103 -125 -198 -45 -50 -108 -128 -142 -173 l-60
-81 7 59 c12 98 61 275 103 370 73 165 152 285 272 409 242 252 535 392 890
427 63 6 116 12 118 14 10 9 -24 10 -118 4z m-1257 -804 c0 -60 -9 -132 -26
-216 -15 -70 -27 -151 -28 -180 l-1 -54 -19 40 c-30 64 -21 209 26 434 8 40
15 87 16 104 l1 32 15 -35 c11 -23 16 -65 16 -125z m305 -152 c-20 -74 -76
-161 -163 -253 -66 -70 -132 -154 -140 -180 -4 -11 -10 -20 -14 -20 -12 0 6
84 25 122 24 46 118 167 208 268 42 46 76 88 76 92 0 4 4 8 9 8 6 0 5 -15 -1
-37z m-465 -265 c38 -59 64 -150 88 -301 11 -70 28 -150 38 -177 11 -28 17
-50 14 -50 -12 0 -56 57 -74 96 -23 50 -52 175 -74 319 -10 61 -21 120 -26
133 -14 36 4 25 34 -20z m347 -44 c0 -29 -17 -88 -49 -172 -53 -138 -101 -283
-102 -310 -1 -35 -20 32 -35 127 -20 122 -15 162 29 236 42 71 135 177 148
169 5 -3 9 -25 9 -50z m30 -107 c0 -78 -18 -150 -75 -291 -24 -61 -50 -135
-56 -164 -16 -66 -29 -50 -29 35 0 70 28 167 96 337 24 59 44 117 44 127 0 11
5 19 10 19 6 0 10 -28 10 -63z m-13 -289 c15 -28 19 -69 23 -278 3 -135 5
-246 4 -248 -3 -5 -89 141 -112 190 -29 62 -28 124 2 218 26 81 54 150 61 150
2 0 12 -15 22 -32z m92 -173 c12 -59 19 -455 8 -448 -4 2 -17 23 -29 46 -21
40 -23 56 -25 287 l-2 245 19 -40 c11 -22 24 -62 29 -90z m-412 68 c53 -42
116 -131 174 -243 24 -47 63 -109 87 -137 47 -59 37 -69 -25 -24 -60 44 -130
143 -223 316 -24 44 -52 93 -64 109 -23 34 -11 29 51 -21z m509 -312 c14 -21
38 -79 54 -127 38 -119 75 -214 106 -276 l26 -51 -33 21 c-18 11 -67 52 -109
90 -64 58 -78 78 -92 123 -17 57 -22 112 -20 217 2 60 3 62 22 52 11 -6 32
-28 46 -49z m124 -106 c16 -27 49 -108 73 -180 52 -150 65 -183 86 -208 30
-36 -1 -29 -40 9 -50 49 -86 121 -153 310 -29 82 -57 158 -61 169 -15 36 65
-47 95 -100z m-333 -108 c32 -20 108 -79 168 -131 61 -53 126 -104 145 -113
l35 -18 -27 -3 c-46 -5 -139 45 -246 131 -169 138 -221 182 -221 189 -2 14 89
-20 146 -55z m485 -69 c24 -14 73 -65 129 -135 49 -62 117 -141 149 -174 33
-34 60 -63 60 -64 0 -8 -168 54 -218 79 -66 33 -121 113 -157 228 -14 44 -25
81 -25 84 0 10 25 3 62 -18z m180 -78 c26 -22 83 -87 127 -144 43 -57 99 -120
123 -141 l43 -38 -35 7 c-67 13 -156 96 -310 291 -34 44 -69 84 -76 88 -8 4
-14 12 -14 18 0 16 92 -36 142 -81z m372 -109 c32 -11 113 -54 181 -96 68 -42
144 -83 169 -91 26 -9 46 -18 46 -21 0 -3 -30 -3 -67 -1 -55 4 -86 14 -161 52
-51 25 -125 67 -165 93 -39 25 -92 57 -117 70 l-45 24 51 -5 c28 -2 77 -14
108 -25z m-129 -10 c22 -10 74 -40 115 -66 41 -27 122 -72 180 -102 l105 -53
-133 0 c-151 0 -172 6 -247 72 -42 37 -135 149 -135 162 0 13 78 4 115 -13z
m-484 -95 c24 -8 87 -30 139 -51 52 -20 126 -45 165 -55 l70 -17 -38 -8 c-63
-12 -155 1 -262 38 -230 80 -290 105 -270 110 30 8 145 -2 196 -17z m859 -174
c0 -18 -80 -52 -146 -62 -38 -6 -154 -9 -259 -8 l-190 3 60 24 c55 22 78 25
282 30 122 3 225 9 229 14 10 9 24 9 24 -1z"/>
<path d="M4437 4793 c-15 -14 -7 -43 12 -43 24 0 33 13 25 34 -6 16 -25 21
-37 9z"/>
<path d="M4781 4676 c-16 -19 -6 -36 20 -36 15 0 20 6 17 22 -4 27 -21 33 -37
14z"/>
<path d="M3737 4570 c-33 -26 -41 -62 -22 -106 13 -32 18 -35 47 -32 29 3 33
7 36 36 2 20 8 32 15 29 7 -2 20 2 30 11 16 14 17 13 17 -18 0 -18 -7 -42 -17
-52 -24 -26 -9 -34 17 -8 19 19 21 29 15 68 -4 26 -16 57 -28 70 -26 28 -75
29 -110 2z"/>
<path d="M4580 4555 c-7 -8 -28 -15 -46 -15 -24 0 -38 -7 -48 -22 -20 -31 -31
-104 -17 -112 17 -11 13 -36 -5 -36 -9 0 -25 -11 -36 -25 -15 -19 -25 -23 -51
-19 -28 4 -29 3 -9 -5 26 -12 28 -26 5 -35 -11 -5 -22 -1 -30 10 -12 17 -13
16 -13 -3 0 -23 24 -48 39 -39 5 3 23 3 41 0 33 -7 43 -23 55 -88 6 -28 4 -36
-7 -36 -8 0 -34 -14 -58 -31 -49 -36 -117 -68 -142 -69 -13 0 -18 8 -18 30 0
39 -21 91 -45 110 -14 11 -12 6 5 -17 18 -26 23 -44 22 -93 -1 -59 0 -62 21
-57 43 11 123 40 162 60 126 64 120 60 94 69 -18 7 -20 11 -10 17 8 5 9 11 3
15 -5 3 -9 17 -9 31 0 14 -8 34 -17 44 -9 9 -16 23 -16 29 0 6 -7 9 -15 6 -20
-8 -35 4 -28 22 5 13 7 13 15 2 6 -9 8 -8 6 7 -2 14 2 20 15 19 13 -2 16 3 12
17 -10 30 3 23 53 -31 56 -59 93 -72 109 -38 6 13 14 36 18 51 5 24 10 28 32
25 19 -2 30 -11 35 -28 6 -19 7 -17 3 9 -3 19 -7 36 -9 38 -2 3 -23 -1 -46 -7
-34 -9 -45 -9 -51 2 -13 21 -11 48 4 42 18 -7 87 73 87 101 0 31 -24 48 -60
43 -35 -5 -41 8 -7 15 20 4 19 4 -4 6 -15 0 -32 -6 -39 -14z m87 -37 c-3 -8
-6 -5 -6 6 -1 11 2 17 5 13 3 -3 4 -12 1 -19z m-54 -28 c10 -12 14 -26 11 -32
-5 -7 -11 -2 -16 13 -7 17 -11 20 -17 10 -6 -9 -11 -10 -15 -2 -8 12 0 31 12
31 4 0 15 -9 25 -20z m37 5 c0 -8 -2 -15 -4 -15 -2 0 -6 7 -10 15 -3 8 -1 15
4 15 6 0 10 -7 10 -15z m-98 -37 c21 17 28 5 28 -49 0 -38 5 -51 22 -63 19
-13 20 -20 12 -43 -14 -41 -52 -42 -88 -4 -16 17 -26 34 -22 38 4 5 17 -3 29
-17 16 -19 18 -20 12 -5 -5 11 -8 30 -8 43 1 26 -12 29 -26 5 -5 -10 -12 -16
-14 -13 -6 6 -10 71 -8 118 l1 33 24 -28 c19 -22 26 -25 38 -15z m-112 -351
c0 -2 -10 -12 -22 -23 l-23 -19 19 23 c18 21 26 27 26 19z"/>
<path d="M5084 4475 c-4 -9 -2 -21 4 -27 15 -15 44 -1 40 19 -4 23 -36 29 -44
8z"/>
<path d="M3701 4375 c-37 -42 -38 -60 -10 -162 14 -51 20 -94 17 -130 -3 -29
-1 -53 4 -53 4 0 8 9 8 21 0 19 4 20 58 13 103 -12 125 -24 134 -69 5 -22 19
-53 33 -70 l24 -30 -24 49 c-45 90 -27 219 37 265 13 9 39 21 58 28 l35 12
-45 -5 c-33 -4 -53 -13 -72 -35 -15 -16 -30 -29 -33 -29 -3 0 -5 16 -5 36 0
34 2 36 27 31 l28 -5 -24 19 c-13 11 -31 17 -39 14 -47 -18 -62 -16 -86 9 -31
30 -33 55 -7 87 18 22 22 23 52 12 21 -8 29 -9 22 -2 -13 13 -82 28 -129 29
-24 0 -39 -9 -63 -35z m76 -61 c-3 -3 -12 -4 -19 -1 -8 3 -5 6 6 6 11 1 17 -2
13 -5z m78 -84 c-3 -5 -12 -10 -18 -10 -7 0 -6 4 3 10 19 12 23 12 15 0z m25
-10 c0 -5 -5 -10 -11 -10 -5 0 -7 5 -4 10 3 6 8 10 11 10 2 0 4 -4 4 -10z m4
-129 c-2 -8 1 -18 8 -23 9 -5 4 -8 -14 -8 -30 0 -47 18 -28 30 8 5 4 9 -12 14
l-23 6 27 17 c15 10 27 22 27 28 -5 40 5 40 12 0 5 -27 6 -56 3 -64z"/>
<path d="M5029 4392 c-13 -10 -50 -33 -82 -51 -51 -29 -65 -33 -105 -27 -32 4
-42 3 -32 -4 20 -13 86 -13 111 0 30 16 23 0 -18 -44 -30 -32 -33 -36 -12 -23
19 11 29 13 37 5 7 -7 15 -9 19 -5 4 4 2 12 -5 19 -8 8 -5 18 13 40 14 16 25
34 25 39 0 5 5 9 12 9 6 0 22 10 35 22 13 12 23 16 23 10 0 -6 -4 -13 -9 -17
-5 -3 -17 -29 -26 -58 -9 -28 -19 -58 -21 -64 -3 -7 1 -13 9 -13 10 0 19 17
26 50 6 28 18 67 26 86 8 20 15 38 15 40 0 9 -19 3 -41 -14z"/>
<path d="M5108 4382 c17 -14 20 -20 11 -29 -10 -10 -8 -14 7 -18 34 -11 49
-22 52 -39 3 -12 -5 -16 -30 -18 -18 -1 -41 -2 -51 -2 -10 -1 -26 -14 -35 -29
-9 -15 -25 -30 -34 -33 -19 -6 -23 -30 -9 -53 9 -14 11 -14 56 26 11 11 15 4
24 -38 13 -61 14 -119 2 -119 -5 0 -18 3 -28 7 -16 6 -15 8 7 14 25 7 24 7 -7
14 -18 4 -30 12 -27 19 2 6 -3 20 -12 31 -8 11 -13 14 -9 7 4 -7 7 -32 7 -56
0 -44 0 -44 43 -55 24 -6 56 -10 72 -10 17 1 21 3 11 6 -10 2 -18 9 -18 15 0
5 6 8 14 5 24 -9 50 17 43 43 -4 17 -3 20 5 12 11 -11 14 -26 18 -82 2 -20 4
-18 11 12 6 26 4 49 -6 79 -8 23 -15 65 -15 94 0 28 -7 73 -14 100 -16 51 -69
115 -95 115 -12 0 -10 -5 7 -18z"/>
<path d="M4715 4350 c3 -5 8 -10 11 -10 2 0 4 5 4 10 0 6 -5 10 -11 10 -5 0
-7 -4 -4 -10z"/>
<path d="M3970 4331 c14 -11 30 -21 35 -21 11 0 -7 14 -40 31 -13 7 -12 3 5
-10z"/>
<path d="M4765 4330 c3 -5 11 -10 16 -10 6 0 7 5 4 10 -3 6 -11 10 -16 10 -6
0 -7 -4 -4 -10z"/>
<path d="M4716 4281 c-8 -12 45 -21 113 -20 l56 2 -72 7 c-39 4 -76 11 -81 14
-6 4 -13 2 -16 -3z"/>
<path d="M4070 4276 c0 -2 8 -10 18 -17 15 -13 16 -12 3 4 -13 16 -21 21 -21
13z"/>
<path d="M4658 4253 c-20 -23 -43 -71 -51 -104 -6 -24 -3 -27 41 -40 33 -10
47 -19 46 -31 -1 -9 4 -14 11 -12 7 3 16 1 20 -5 12 -20 22 -11 18 17 -4 21
-2 24 6 12 7 -10 11 -11 11 -3 0 17 -35 34 -53 27 -9 -3 -28 1 -44 9 l-28 15
35 16 c28 13 30 15 10 12 -14 -2 -33 -7 -43 -11 -15 -6 -16 -4 -7 19 5 14 20
40 32 56 24 33 21 51 -4 23z"/>
<path d="M4109 4224 c19 -8 41 -19 48 -26 7 -6 13 -7 13 -2 0 12 -58 44 -78
44 -9 -1 -2 -7 17 -16z"/>
<path d="M4961 4221 c-12 -8 -11 -16 7 -54 11 -24 23 -64 26 -88 2 -24 5 -45
5 -46 1 -2 5 -3 10 -3 11 0 3 102 -10 115 -5 5 -9 17 -9 27 0 10 -5 18 -11 18
-6 0 -8 9 -4 20 7 22 6 23 -14 11z"/>
<path d="M4782 4195 c-76 -27 -80 -31 -37 -29 29 2 105 37 105 50 0 2 -1 4 -2
3 -2 -1 -31 -11 -66 -24z"/>
<path d="M5328 4208 c-8 -21 2 -38 24 -38 14 0 19 6 16 22 -3 25 -33 36 -40
16z"/>
<path d="M5064 4144 c3 -9 6 -18 6 -20 0 -2 5 -4 10 -4 6 0 10 9 10 20 0 12
-7 20 -16 20 -11 0 -14 -5 -10 -16z"/>
<path d="M4038 4114 c-34 -18 -67 -114 -39 -114 5 0 7 9 4 19 -3 11 3 33 13
50 24 41 57 41 74 1 16 -38 24 -32 15 9 -9 41 -32 53 -67 35z"/>
<path d="M4558 4073 c-9 -10 -21 -29 -28 -43 -11 -21 -11 -23 1 -13 15 12 53
73 46 73 -2 0 -11 -8 -19 -17z"/>
<path d="M4642 4058 c-7 -7 -12 -24 -12 -39 0 -15 -5 -40 -10 -54 -6 -15 -7
-32 -3 -37 8 -14 33 81 26 99 -3 8 3 20 13 28 11 8 14 15 9 15 -6 0 -16 -5
-23 -12z"/>
<path d="M4575 4039 c-11 -17 1 -21 15 -4 8 9 8 15 2 15 -6 0 -14 -5 -17 -11z"/>
<path d="M3690 3975 c0 -36 6 -56 25 -81 17 -22 25 -45 25 -72 0 -77 -10 -102
-54 -129 -23 -14 -67 -43 -98 -64 -31 -21 -81 -50 -112 -63 -61 -27 -70 -42
-30 -52 16 -4 22 -9 14 -14 -18 -11 8 -87 38 -111 26 -20 22 -25 -8 -9 -10 5
-24 26 -30 45 -6 19 -16 35 -21 35 -19 0 19 -66 49 -85 21 -13 31 -26 28 -37
-5 -24 1 -23 14 2 8 15 7 27 -6 51 -9 18 -13 41 -10 55 8 29 101 94 205 142
42 19 84 44 93 54 27 31 71 165 73 223 1 22 5 59 10 83 5 29 4 42 -4 42 -6 0
-11 -12 -11 -26 0 -15 -10 -67 -21 -117 -18 -76 -27 -96 -60 -131 -21 -22 -45
-50 -53 -61 -11 -14 -15 -16 -16 -5 0 8 17 31 37 52 41 42 41 60 0 27 -15 -11
-27 -16 -27 -10 0 6 9 15 20 21 23 12 56 111 66 198 7 68 7 68 -82 78 l-54 7
0 -48z m130 -275 c0 -5 -5 -10 -11 -10 -5 0 -7 5 -4 10 3 6 8 10 11 10 2 0 4
-4 4 -10z"/>
<path d="M4607 4013 c-4 -3 -7 -11 -7 -17 0 -6 5 -5 12 2 6 6 9 14 7 17 -3 3
-9 2 -12 -2z"/>
<path d="M4960 4006 c14 -8 55 -23 93 -32 37 -10 67 -21 67 -25 0 -4 23 -12
50 -19 51 -12 71 -27 52 -39 -7 -4 -4 -11 8 -19 16 -10 22 -8 39 15 35 43 21
78 -31 78 -18 1 -44 4 -58 9 l-25 8 23 -17 c13 -9 33 -15 46 -13 16 3 22 -1
23 -14 1 -10 -3 -18 -8 -18 -6 0 -7 5 -3 12 5 8 0 9 -16 5 -15 -4 -44 3 -77
18 -29 14 -55 25 -58 25 -2 0 -16 5 -32 11 -15 7 -35 13 -43 14 -8 1 -28 5
-45 9 l-30 7 25 -15z"/>
<path d="M4775 3980 c10 -11 20 -20 23 -20 3 0 -3 9 -13 20 -10 11 -20 20 -23
20 -3 0 3 -9 13 -20z"/>
<path d="M4178 3939 c-15 -21 -26 -39 -23 -39 7 0 58 70 54 74 -2 2 -16 -14
-31 -35z"/>
<path d="M4892 3974 c-6 -3 -9 -10 -6 -16 4 -6 -2 -8 -17 -3 l-24 7 20 -21
c12 -12 36 -22 56 -23 24 -2 35 -7 32 -15 -3 -7 -9 -13 -14 -13 -16 0 -84 35
-92 48 -11 17 -27 15 -27 -3 0 -8 5 -15 10 -15 6 0 10 -6 10 -14 0 -8 12 -17
28 -21 l27 -8 -30 -8 c-24 -7 -33 -4 -50 14 -11 12 -19 24 -18 27 1 3 -7 6
-17 7 -28 2 -36 -18 -14 -34 16 -12 17 -15 4 -23 -12 -8 -10 -15 17 -40 18
-16 41 -30 53 -30 12 0 18 -4 15 -10 -3 -5 -17 -10 -30 -10 -13 0 -27 5 -30
10 -3 6 -15 10 -26 10 -10 0 -19 5 -19 10 0 6 -8 10 -17 10 -14 0 -15 -2 -4
-9 22 -14 -44 -25 -129 -21 -158 8 -203 -1 -215 -40 -5 -16 -15 -20 -52 -20
-42 0 -50 4 -90 47 -23 26 -43 43 -43 38 0 -5 17 -26 37 -47 20 -21 32 -38 27
-38 -13 0 -95 86 -88 93 3 2 -7 2 -20 0 -21 -4 -27 0 -39 28 -12 32 -15 33
-69 33 -37 1 -53 -3 -48 -9 5 -6 3 -20 -4 -33 -12 -23 -13 -23 -41 22 -33 52
-45 57 -45 21 0 -14 -7 -42 -15 -62 -19 -45 -19 -79 -1 -86 8 -3 19 -30 25
-59 7 -29 25 -87 41 -129 18 -47 31 -101 33 -140 2 -41 8 -64 15 -63 7 1 24 2
40 3 24 2 25 3 7 11 -19 8 -19 9 3 9 13 1 22 -5 22 -14 0 -9 9 -15 23 -14 12
0 16 3 10 6 -21 8 -15 23 10 24 15 1 10 4 -13 9 l-35 7 32 2 c34 1 56 22 32
29 -27 9 -77 71 -82 104 -9 51 -47 231 -54 253 -5 17 -4 18 10 7 12 -10 20
-10 34 -2 15 10 25 5 61 -28 58 -54 95 -69 127 -52 14 7 28 11 31 8 8 -9 -20
-94 -56 -170 -17 -37 -30 -73 -28 -79 5 -14 64 114 88 189 9 29 20 53 23 53 4
-1 14 -1 22 -1 8 0 15 -6 15 -14 0 -17 -35 -95 -55 -120 -9 -12 -12 -29 -8
-44 5 -20 -2 -32 -42 -68 -26 -24 -41 -44 -33 -44 7 0 33 20 57 44 38 38 42
46 32 65 -10 18 -7 27 18 59 16 20 35 54 42 75 7 20 17 37 21 37 13 0 92 60
101 76 4 8 20 14 36 14 27 0 27 -1 28 -62 1 -35 6 -74 12 -88 9 -20 10 -9 5
50 -7 88 4 106 55 95 31 -6 31 -7 15 -37 -12 -24 -13 -39 -5 -79 6 -28 12 -96
13 -152 0 -56 3 -86 5 -67 1 19 6 63 9 98 8 83 18 92 109 92 77 0 92 6 69 28
-12 11 -14 10 -14 -3 0 -31 -29 -13 -51 33 -19 37 -30 48 -51 50 -27 3 -27 3
-13 -25 19 -36 19 -73 0 -73 -7 0 -19 8 -24 18 -9 14 -12 14 -19 4 -14 -21
-24 31 -12 62 9 24 15 26 64 26 30 0 58 5 62 11 4 8 -1 9 -17 4 -21 -7 -22 -6
-11 8 13 15 16 15 38 0 14 -9 36 -35 50 -59 14 -24 32 -44 39 -44 26 0 69 21
59 28 -6 4 -17 18 -24 32 l-13 25 24 -18 c36 -26 47 -30 65 -23 11 4 14 13 11
27 -4 16 -2 19 10 15 9 -4 25 2 37 13 15 14 38 21 77 23 41 2 55 7 51 16 -2 7
2 12 9 10 8 -2 13 3 12 10 -2 6 6 12 17 12 11 0 20 4 20 8 0 5 -13 7 -30 4
-18 -3 -30 0 -30 7 0 6 9 11 20 11 21 0 27 15 10 25 -6 4 -18 1 -27 -6 -13
-11 -17 -10 -29 6 -26 38 -33 43 -89 64 -60 23 -123 34 -143 25z m-821 -131
c13 -16 12 -17 -3 -4 -17 13 -22 21 -14 21 2 0 10 -8 17 -17z m820 -12 c20
-19 20 -19 -15 -23 -28 -3 -36 0 -36 12 0 34 21 39 51 11z m59 -1 c0 -5 -8
-10 -17 -10 -15 0 -16 2 -3 10 19 12 20 12 20 0z m144 -23 c-18 -10 -40 6 -30
22 5 7 13 7 26 -1 17 -11 18 -14 4 -21z m-644 -40 c0 -2 -9 -12 -19 -21 -13
-11 -21 -14 -26 -7 -3 6 4 15 17 20 28 12 28 12 28 8z m-408 -359 c-6 -6 -15
-8 -19 -4 -4 4 -1 11 7 16 19 12 27 3 12 -12z m11 -35 c-7 -2 -21 -2 -30 0
-10 3 -4 5 12 5 17 0 24 -2 18 -5z"/>
<path d="M4855 3830 c3 -5 8 -10 11 -10 2 0 4 5 4 10 0 6 -5 10 -11 10 -5 0
-7 -4 -4 -10z"/>
<path d="M4538 3873 c7 -3 16 -2 19 1 4 3 -2 6 -13 5 -11 0 -14 -3 -6 -6z"/>
<path d="M4310 3861 c0 -6 4 -13 10 -16 6 -3 7 1 4 9 -7 18 -14 21 -14 7z"/>
<path d="M4598 3843 c6 -2 18 -2 25 0 6 3 1 5 -13 5 -14 0 -19 -2 -12 -5z"/>
<path d="M4360 3820 c8 -5 20 -10 25 -10 6 0 3 5 -5 10 -8 5 -19 10 -25 10 -5
0 -3 -5 5 -10z"/>
<path d="M4436 3816 c3 -9 11 -16 16 -16 13 0 5 23 -10 28 -7 2 -10 -2 -6 -12z"/>
<path d="M5186 3805 c-7 -18 2 -18 34 0 l25 14 -26 1 c-15 0 -29 -7 -33 -15z"/>
<path d="M4748 3723 c7 -3 16 -2 19 1 4 3 -2 6 -13 5 -11 0 -14 -3 -6 -6z"/>
<path d="M4551 3581 c-1 -8 4 -40 11 -72 10 -50 9 -60 -5 -83 -10 -14 -13 -26
-8 -26 16 0 31 36 31 72 0 33 -28 136 -29 109z"/>
<path d="M4510 3390 c0 -9 70 -24 78 -16 8 9 0 13 -40 19 -21 3 -38 2 -38 -3z"/>
<path d="M3615 3304 c-77 -8 -151 -19 -165 -24 -24 -9 -24 -10 5 -5 17 2 85 9
152 15 100 8 126 7 149 -4 15 -8 57 -18 93 -21 56 -5 266 -32 289 -36 4 -1
-11 -5 -33 -10 -30 -6 -21 -7 35 -4 102 5 461 34 480 39 36 9 -107 4 -243 -8
-84 -7 -169 -10 -195 -5 -26 4 -119 15 -207 24 -174 18 -211 25 -207 43 1 7
-1 11 -5 11 -5 -1 -71 -8 -148 -15z"/>
<path d="M5165 3314 c-16 -2 -91 -10 -165 -19 -74 -8 -187 -19 -250 -24 -109
-8 -111 -8 -40 -10 41 -2 71 -4 65 -6 -5 -2 -36 -11 -69 -20 -32 -9 -56 -18
-54 -20 2 -2 35 5 73 15 115 32 231 48 390 55 158 7 185 10 185 26 0 8 -68 10
-135 3z"/>
<path d="M3860 3200 c-20 -5 13 -6 75 -3 61 3 112 7 114 9 8 7 -154 1 -189 -6z"/>
<path d="M3276 2984 c-9 -26 -16 -56 -16 -66 0 -22 26 -24 34 -3 3 8 10 15 16
15 5 0 10 -7 10 -15 0 -15 25 -21 34 -7 2 4 -1 32 -8 62 -10 43 -17 56 -33 58
-17 3 -24 -6 -37 -44z"/>
<path d="M3383 2995 c-29 -61 17 -120 60 -77 11 12 18 25 14 29 -4 3 -13 1
-19 -5 -7 -7 -16 -12 -20 -12 -12 0 -10 58 2 65 6 3 10 1 10 -4 0 -6 9 -11 20
-11 22 0 26 20 8 38 -24 24 -57 14 -75 -23z"/>
<path d="M3501 2975 c-12 -31 -21 -60 -21 -65 0 -15 26 -12 40 5 7 8 16 15 21
15 5 0 9 -7 9 -15 0 -8 7 -15 16 -15 14 0 16 8 10 50 -9 67 -15 80 -36 80 -13
0 -25 -16 -39 -55z"/>
<path d="M3607 3023 c-4 -3 -7 -33 -7 -65 0 -52 2 -58 20 -58 49 0 91 85 58
118 -13 13 -60 16 -71 5z m53 -37 c0 -22 -11 -46 -21 -46 -5 0 -9 14 -9 30 0
20 5 30 15 30 8 0 15 -6 15 -14z"/>
<path d="M3706 3008 c-3 -13 -6 -42 -6 -66 l0 -43 43 3 c50 4 59 29 12 39
l-30 6 28 7 c33 10 35 24 5 35 -21 8 -21 8 5 15 40 10 33 26 -12 26 -32 0 -40
-4 -45 -22z"/>
<path d="M3810 2965 c0 -51 3 -65 15 -65 8 0 15 4 15 9 0 5 9 11 20 14 13 3
20 0 20 -9 0 -8 7 -14 15 -14 12 0 15 14 15 65 0 49 -3 65 -14 65 -8 0 -19
-12 -24 -27 l-10 -28 -11 28 c-6 15 -17 27 -26 27 -12 0 -15 -13 -15 -65z"/>
<path d="M3936 3008 c-12 -46 -7 -108 9 -108 8 0 15 8 15 19 0 10 3 39 6 65 6
37 4 46 -8 46 -9 0 -18 -10 -22 -22z"/>
<path d="M4004 2993 c-23 -57 -29 -93 -14 -93 7 0 19 8 26 18 13 16 15 16 28
0 14 -19 36 -24 36 -10 0 5 -5 34 -11 65 -14 70 -40 78 -65 20z"/>
<path d="M4166 3014 c-3 -9 -6 -38 -6 -65 0 -40 3 -49 18 -49 48 0 91 80 62
115 -17 20 -66 19 -74 -1z m54 -28 c0 -22 -11 -46 -21 -46 -5 0 -9 14 -9 30 0
20 5 30 15 30 8 0 15 -6 15 -14z"/>
<path d="M4266 3014 c-3 -9 -6 -38 -6 -65 l0 -49 45 0 c38 0 45 3 45 20 0 16
-7 20 -32 21 l-33 1 28 11 c33 13 36 37 5 38 -21 1 -21 2 5 12 38 15 34 27
-12 27 -26 0 -41 -5 -45 -16z"/>
<path d="M4430 2965 c0 -51 3 -65 15 -65 8 0 15 6 15 13 0 7 9 13 20 13 11 0
20 -6 20 -14 0 -7 8 -12 18 -10 14 3 17 14 17 62 0 66 -15 83 -37 41 l-14 -26
-12 25 c-6 14 -18 26 -27 26 -12 0 -15 -13 -15 -65z"/>
<path d="M4582 3003 c-30 -79 -32 -94 -15 -100 9 -4 19 1 25 10 11 21 28 22
28 2 0 -14 21 -21 32 -10 3 3 0 31 -6 63 -9 45 -16 58 -32 60 -15 2 -24 -5
-32 -25z"/>
<path d="M4677 2993 c-11 -64 -8 -93 8 -93 8 0 15 9 15 20 0 24 9 26 25 3 16
-22 38 -8 25 16 -6 12 -5 22 1 28 6 6 9 21 7 34 -2 20 -10 25 -39 27 -35 3
-36 2 -42 -35z m53 -3 c0 -5 -7 -10 -16 -10 -8 0 -12 5 -9 10 3 6 10 10 16 10
5 0 9 -4 9 -10z"/>
<path d="M4786 3008 c-12 -46 -7 -108 9 -108 11 0 15 11 15 43 0 23 3 52 6 65
5 16 2 22 -9 22 -8 0 -17 -10 -21 -22z"/>
<path d="M4828 2975 c-4 -65 -1 -75 18 -75 9 0 14 11 14 28 l1 27 15 -28 c23
-43 39 -28 42 41 2 51 0 62 -13 62 -8 0 -15 -8 -15 -17 -1 -17 -1 -17 -14 0
-27 35 -44 21 -48 -38z"/>
<path d="M4938 2993 c-4 -94 -7 -88 40 -91 37 -3 42 -1 42 17 0 16 -7 21 -27
22 -28 0 -28 1 -5 11 12 6 22 17 22 25 0 7 -10 13 -22 14 -21 1 -20 2 5 11 39
14 33 28 -13 28 -39 0 -40 -1 -42 -37z"/>
<path d="M5046 3014 c-3 -9 -6 -38 -6 -65 0 -37 4 -49 15 -49 9 0 15 9 15 23
l0 22 19 -24 c19 -25 38 -15 27 15 -3 8 0 25 6 39 8 19 8 28 -2 40 -17 20 -66
20 -74 -1z m54 -18 c0 -2 -7 -9 -15 -16 -12 -10 -15 -10 -15 4 0 9 7 16 15 16
8 0 15 -2 15 -4z"/>
<path d="M5174 2994 c-23 -54 -29 -94 -14 -94 7 0 19 8 26 18 13 16 15 16 25
0 5 -10 17 -18 25 -18 13 0 14 8 9 43 -16 94 -44 115 -71 51z"/>
<path d="M3731 2827 c-5 -12 -12 -50 -16 -84 -6 -54 -5 -63 9 -63 10 0 16 9
16 25 0 14 4 25 9 25 5 0 12 -11 15 -25 4 -14 13 -25 21 -25 11 0 15 13 17 50
0 28 1 55 2 62 1 6 -5 13 -11 16 -7 2 -13 -3 -13 -12 0 -19 -16 -21 -23 -3 -9
24 -6 32 12 29 10 -2 21 3 24 11 4 10 -3 14 -24 15 -22 0 -32 -5 -38 -21z"/>
<path d="M3497 2803 c-4 -3 -7 -33 -7 -65 0 -45 3 -58 15 -58 8 0 15 8 15 18
0 9 14 25 30 34 31 18 39 45 18 66 -13 13 -60 16 -71 5z m53 -27 c0 -2 -7 -9
-15 -16 -12 -10 -15 -10 -15 4 0 9 7 16 15 16 8 0 15 -2 15 -4z"/>
<path d="M3617 2763 c-21 -58 -22 -83 -3 -83 8 0 17 8 21 18 6 16 7 16 20 -2
19 -25 45 -14 38 16 -20 86 -25 98 -41 98 -12 0 -24 -15 -35 -47z"/>
<path d="M3824 2763 c-8 -52 2 -76 33 -81 34 -5 53 24 53 79 0 36 -4 49 -14
49 -10 0 -16 -13 -18 -42 -2 -24 -9 -43 -17 -46 -11 -4 -12 5 -7 42 6 37 4 46
-8 46 -10 0 -17 -15 -22 -47z"/>
<path d="M3929 2760 c-1 -27 -2 -56 -3 -62 -1 -8 15 -14 42 -16 37 -3 43 -1
40 14 -2 10 -14 21 -28 24 l-25 6 23 8 c27 9 29 26 2 26 -11 0 -20 5 -20 10 0
6 11 10 25 10 16 0 25 6 25 15 0 11 -11 15 -40 15 l-40 0 -1 -50z"/>
<path d="M4030 2744 l0 -65 38 3 c42 3 53 31 15 36 -20 3 -23 9 -23 48 0 32
-4 44 -15 44 -12 0 -15 -14 -15 -66z"/>
<path d="M4137 2792 c-31 -34 -15 -112 22 -112 24 0 39 19 47 57 12 60 -33 95
-69 55z m43 -34 c0 -13 -4 -29 -9 -37 -13 -20 -24 4 -17 35 8 30 26 32 26 2z"/>
<path d="M4234 2784 c-5 -21 -2 -31 14 -45 27 -21 28 -31 4 -27 -24 4 -29 -14
-8 -27 41 -25 74 41 35 69 -13 8 -19 19 -15 23 5 5 11 2 13 -4 8 -22 25 -14
21 10 -2 16 -11 23 -30 25 -23 3 -29 -2 -34 -24z"/>
<path d="M4406 2768 c-26 -73 -28 -88 -15 -88 7 0 21 7 31 16 16 16 18 16 24
0 3 -9 13 -16 21 -16 13 0 14 9 9 50 -9 67 -15 80 -36 80 -12 0 -23 -14 -34
-42z"/>
<path d="M4500 2745 l0 -65 41 0 c33 0 40 3 37 18 -2 9 -14 18 -27 20 -21 3
-23 7 -16 48 6 40 4 44 -14 44 -19 0 -21 -6 -21 -65z"/>
<path d="M4686 2783 c-8 -16 -17 -45 -21 -66 -8 -41 5 -49 33 -20 16 16 17 16
20 0 3 -17 27 -23 35 -9 2 4 -1 32 -7 62 -13 65 -36 78 -60 33z"/>
<path d="M4780 2791 c0 -10 -3 -39 -6 -65 -5 -37 -4 -46 8 -46 11 0 17 15 22
46 9 69 8 84 -9 84 -8 0 -15 -8 -15 -19z"/>
<path d="M4826 2794 c-3 -9 -6 -38 -6 -65 0 -37 4 -49 15 -49 8 0 15 9 15 20
0 26 17 26 25 1 4 -12 12 -18 20 -14 11 4 12 10 4 25 -8 14 -8 23 0 31 16 16
13 54 -5 61 -29 11 -62 6 -68 -10z m54 -22 c0 -13 -12 -22 -22 -16 -10 6 -1
24 13 24 5 0 9 -4 9 -8z"/>
<path d="M4930 2745 l0 -65 40 0 c33 0 40 3 40 20 0 15 -7 20 -27 21 -28 0
-28 1 -5 11 27 14 29 28 2 28 -30 0 -24 18 7 22 48 6 39 28 -11 28 l-46 0 0
-65z"/>
<path d="M4416 2584 c-3 -9 -6 -38 -6 -65 0 -37 4 -49 15 -49 8 0 15 4 15 8 0
4 9 8 20 8 11 0 20 -4 20 -8 0 -4 9 -8 20 -8 19 0 21 5 18 62 -3 70 -19 84
-39 36 l-13 -32 -13 32 c-14 35 -27 41 -37 16z"/>
<path d="M4556 2584 c-40 -39 -27 -114 18 -114 30 0 46 25 46 74 0 25 -6 38
-19 46 -25 13 -27 13 -45 -6z m34 -43 c0 -17 -4 -33 -10 -36 -6 -4 -10 8 -10
29 0 20 5 36 10 36 6 0 10 -13 10 -29z"/>
<path d="M4635 2591 c-3 -5 2 -16 10 -25 9 -8 16 -33 18 -55 3 -58 25 -52 33
9 4 32 11 50 20 50 8 0 14 7 14 15 0 11 -12 15 -44 15 -25 0 -47 -4 -51 -9z"/>
<path d="M4745 2567 c-4 -19 -5 -47 -3 -63 2 -24 8 -30 33 -32 39 -5 55 19 55
80 0 35 -4 48 -14 48 -11 0 -16 -14 -18 -47 -2 -29 -8 -48 -17 -51 -11 -4 -13
5 -7 47 5 42 4 51 -8 51 -9 0 -18 -13 -21 -33z"/>
<path d="M4868 2593 c-16 -4 -26 -54 -20 -100 4 -25 22 -32 22 -9 0 8 12 21
28 28 22 11 27 20 27 48 0 36 -15 45 -57 33z m32 -38 c0 -8 -4 -15 -10 -15 -5
0 -10 7 -10 15 0 8 5 15 10 15 6 0 10 -7 10 -15z"/>
<path d="M4956 2584 c-3 -9 -6 -38 -6 -65 l0 -49 40 0 c29 0 40 4 40 15 0 8
-9 15 -20 15 -11 0 -20 5 -20 10 0 6 6 10 14 10 24 0 30 21 7 27 -25 6 -18 23
10 23 10 0 19 7 19 15 0 22 -76 21 -84 -1z"/>
</g>
</svg>
